<svg width="164" height="44" viewBox="0 0 164 44" fill="none" xmlns="http://www.w3.org/2000/svg">
<path d="M22 0L26.9393 15.2016H42.9232L29.992 24.5967L34.9313 39.7984L22 30.4033L9.06872 39.7984L14.008 24.5967L1.07676 15.2016H17.0607L22 0Z" fill="#FFEF5E"/>
<path d="M82 0L86.9393 15.2016H102.923L89.992 24.5967L94.9313 39.7984L82 30.4033L69.0687 39.7984L74.008 24.5967L61.0768 15.2016H77.0607L82 0Z" fill="#FFEF5E"/>
<path d="M142 0L146.939 15.2016H162.923L149.992 24.5967L154.931 39.7984L142 30.4033L129.069 39.7984L134.008 24.5967L121.077 15.2016H137.061L142 0Z" fill="#FFEF5E"/>
</svg>
