<svg width="22" height="22" viewBox="0 0 22 22" fill="none" xmlns="http://www.w3.org/2000/svg">
<path d="M3.4375 9.625L5.06086 5.8373C5.32512 5.2207 5.99844 4.8125 6.75082 4.8125H15.2492C16.0016 4.8125 16.6749 5.2207 16.9391 5.8373L18.5625 9.625M3.4375 9.625H18.5625M3.4375 9.625V15.8125M18.5625 9.625V15.8125M18.5625 15.8125H3.4375M18.5625 15.8125V17.1875H17.1875V15.8125M3.4375 15.8125V17.1875H4.8125V15.8125" stroke="#14AE5C" stroke-linecap="round" stroke-linejoin="round"/>
<path d="M6.1875 13.0625C6.5672 13.0625 6.875 12.7547 6.875 12.375C6.875 11.9953 6.5672 11.6875 6.1875 11.6875C5.8078 11.6875 5.5 11.9953 5.5 12.375C5.5 12.7547 5.8078 13.0625 6.1875 13.0625Z" stroke="#14AE5C" stroke-linecap="round" stroke-linejoin="round"/>
<path d="M15.8125 13.0625C16.1922 13.0625 16.5 12.7547 16.5 12.375C16.5 11.9953 16.1922 11.6875 15.8125 11.6875C15.4328 11.6875 15.125 11.9953 15.125 12.375C15.125 12.7547 15.4328 13.0625 15.8125 13.0625Z" stroke="#14AE5C" stroke-linecap="round" stroke-linejoin="round"/>
</svg>
