<svg width="73" height="22" viewBox="0 0 73 22" fill="none" xmlns="http://www.w3.org/2000/svg">
<g clip-path="url(#clip0_827_9387)">
<path d="M40.5525 7.03906V8.3782H38.0115V15.3142H36.5351V8.3782H33.9941V7.03906H40.5525Z" fill="#E1251B"/>
<path d="M42.854 9.54541C42.957 9.54541 43.1287 9.57975 43.369 9.61408V10.9876C43.1287 10.9189 42.8883 10.8845 42.6823 10.8845C42.2359 10.8845 41.8582 11.0219 41.5835 11.2966C41.3088 11.5713 41.1715 11.9146 41.1715 12.3954V15.314H39.7637V9.68276H41.1715V10.5755H41.2058C41.3775 10.2321 41.5835 9.99179 41.8582 9.8201C42.1672 9.64842 42.4763 9.54541 42.854 9.54541Z" fill="#E1251B"/>
<path d="M46.1141 9.54541C46.9039 9.54541 47.5219 9.75143 47.8996 10.1291C48.3117 10.5068 48.4834 11.1249 48.4834 11.949V15.314H47.2129V14.5586H47.1786C46.8009 15.1766 46.1828 15.4857 45.3931 15.4857C44.775 15.4857 44.2943 15.314 43.9166 15.005C43.5389 14.6959 43.3672 14.2839 43.3672 13.8032C43.3672 13.1508 43.6419 12.6701 44.1913 12.3267C44.7407 12.0177 45.5991 11.846 46.8352 11.846H47.2816V11.6743C47.2816 11.3309 47.1786 11.0906 46.9382 10.9189C46.6979 10.7472 46.3888 10.6442 46.0111 10.6442C45.4274 10.6442 44.9467 10.8502 44.5003 11.2279L43.7792 10.5068C44.2943 9.85444 45.1184 9.54541 46.1141 9.54541ZM44.775 13.6658C44.775 13.9062 44.878 14.0779 45.084 14.2152C45.29 14.3526 45.5304 14.3869 45.7708 14.3869C46.2515 14.3869 46.5948 14.2839 46.8352 14.0435C47.0756 13.8032 47.1786 13.4941 47.1786 13.1508V12.8074H46.7665C45.4274 12.8074 44.775 13.0821 44.775 13.6658Z" fill="#E1251B"/>
<path d="M50.1319 6.97021C50.3722 6.97021 50.6126 7.03889 50.7843 7.21057C50.9559 7.38226 51.0589 7.55394 51.0589 7.82863C51.0589 8.06899 50.9559 8.27501 50.7843 8.4467C50.6126 8.61838 50.4066 8.68705 50.1319 8.68705C49.8572 8.68705 49.6855 8.61838 49.5138 8.4467C49.3421 8.27501 49.2734 8.06899 49.2734 7.86297C49.2734 7.62261 49.3421 7.45093 49.5138 7.27925C49.6855 7.03889 49.8915 6.97021 50.1319 6.97021ZM50.8529 9.68282V15.2797H49.4451V9.68282H50.8529Z" fill="#E1251B"/>
<path d="M54.9388 9.54541C55.5912 9.54541 56.0719 9.75143 56.4496 10.1291C56.8273 10.5068 56.999 11.0562 56.999 11.7086V15.2797H55.5912V12.361C55.5912 11.2966 55.2478 10.7815 54.5611 10.7815C54.149 10.7815 53.84 10.9189 53.634 11.1592C53.428 11.3996 53.2906 11.743 53.2906 12.1893V15.2797H51.8828V9.68276H53.2219V10.5755H53.2563C53.531 9.88878 54.1147 9.54541 54.9388 9.54541Z" fill="#E1251B"/>
<path d="M58.7158 6.97021C58.9562 6.97021 59.1966 7.03889 59.3682 7.21057C59.5399 7.38226 59.6429 7.55394 59.6429 7.82863C59.6429 8.06899 59.5399 8.27501 59.3682 8.4467C59.1966 8.61838 58.9905 8.68705 58.7158 8.68705C58.4411 8.68705 58.2695 8.61838 58.0978 8.4467C57.9261 8.27501 57.8574 8.06899 57.8574 7.86297C57.8574 7.62261 57.9261 7.45093 58.0978 7.27925C58.2351 7.03889 58.4411 6.97021 58.7158 6.97021ZM59.4026 9.68282V15.2797H58.0291V9.68282H59.4026Z" fill="#E1251B"/>
<path d="M63.5239 9.54541C64.1763 9.54541 64.657 9.75143 65.0347 10.1291C65.4124 10.5068 65.5841 11.0562 65.5841 11.7086V15.2797H64.1763V12.361C64.1763 11.2966 63.8329 10.7815 63.1462 10.7815C62.7342 10.7815 62.4251 10.9189 62.2191 11.1592C62.0131 11.3996 61.8757 11.743 61.8757 12.1893V15.2797H60.4336V9.68276H61.7727V10.5755H61.8071C62.1161 9.88878 62.6998 9.54541 63.5239 9.54541Z" fill="#E1251B"/>
<path d="M69.0184 9.54541C69.9112 9.54541 70.5636 9.88878 70.9413 10.5412H70.9756V9.71709H72.3148V14.8676C72.3148 15.8634 72.0401 16.6875 71.525 17.2712C71.01 17.8549 70.2202 18.1296 69.1558 18.1296C67.9883 18.1296 67.0612 17.8206 66.3745 17.2025L67.1986 16.0694C67.7823 16.6188 68.4347 16.8591 69.1214 16.8591C69.7738 16.8591 70.2202 16.6875 70.4949 16.3784C70.7696 16.0351 70.9069 15.5543 70.9069 14.9363V14.5586H70.8726C70.4262 15.108 69.8425 15.3827 69.0528 15.3827C68.2287 15.3827 67.5763 15.108 67.0612 14.5586C66.5462 14.0092 66.2715 13.3225 66.2715 12.4984C66.2715 11.64 66.5118 10.9532 67.0269 10.3695C67.5419 9.8201 68.1943 9.54541 69.0184 9.54541ZM67.6793 12.4984C67.6793 12.9791 67.851 13.3568 68.16 13.6658C68.469 13.9749 68.8811 14.1122 69.3275 14.1122C69.8425 14.1122 70.2545 13.9405 70.5292 13.6315C70.8383 13.3225 70.9756 12.9104 70.9756 12.464C70.9756 11.949 70.8383 11.5369 70.5292 11.2622C70.2202 10.9532 69.8082 10.8159 69.3275 10.8159C68.8467 10.8159 68.4347 10.9532 68.1257 11.2622C67.8166 11.5713 67.6793 11.9833 67.6793 12.4984Z" fill="#E1251B"/>
<path d="M31.074 21.1858C30.971 21.1858 30.9023 21.1172 30.9023 21.0141V0.377739C30.9023 0.274728 30.971 0.206055 31.074 0.206055C31.177 0.206055 31.2457 0.309065 31.2457 0.377739V21.0141C31.2457 21.1172 31.177 21.1858 31.074 21.1858Z" fill="black"/>
<path d="M4.9096 6.76424C4.46322 6.31786 4.08552 6.18051 3.67348 6.18051C2.47169 6.18051 1.64761 7.1076 1.64761 8.27505C1.64761 9.54552 2.47169 10.4726 3.67348 10.4726C4.15419 10.4726 4.60057 10.2666 5.01261 9.75154L5.87103 10.3696C5.32164 11.0907 4.53189 11.434 3.67348 11.434C1.85363 11.434 0.548828 10.1979 0.548828 8.37806C0.548828 6.48954 1.85363 5.25342 3.67348 5.25342C4.46322 5.25342 5.14996 5.49378 5.73368 6.18051L4.9096 6.76424Z" fill="black"/>
<path d="M6.8319 5.35645C7.2096 5.35645 7.4843 5.5968 7.4843 5.94017C7.4843 6.28354 7.2096 6.5239 6.8319 6.5239C6.45419 6.5239 6.21384 6.2492 6.21384 5.94017C6.1795 5.63114 6.45419 5.35645 6.8319 5.35645ZM6.35118 7.27931H7.34695V11.2624H6.35118V7.27931Z" fill="black"/>
<path d="M7.86328 8.13769V7.27927H8.68736V6.11182H9.68313V7.27927H10.7819V8.13769H9.68313V9.88886C9.68313 10.3009 9.78614 10.5413 10.2325 10.5413C10.4042 10.5413 10.6446 10.5069 10.7819 10.4039V11.228C10.5759 11.331 10.2325 11.3653 9.99216 11.3653C8.92772 11.3653 8.68736 10.8846 8.68736 9.95754V8.13769H7.86328Z" fill="black"/>
<path d="M10.9863 7.2793H12.0851L13.1839 10.0606H13.2182L14.214 7.2793H15.2441L13.3556 12.1208C13.0809 12.8762 12.7032 13.2539 11.8447 13.2539C11.5701 13.2539 11.3297 13.2196 11.0893 13.1509L11.2267 12.2581C11.3984 12.3268 11.5701 12.3611 11.7417 12.3611C12.2225 12.3611 12.3598 12.1895 12.5315 11.7774L12.7375 11.2967L10.9863 7.2793Z" fill="black"/>
<path d="M10.4376 18.0613C9.71649 18.439 8.8924 18.645 7.99965 18.645C6.1798 18.645 4.875 17.4089 4.875 15.589C4.875 13.7005 6.1798 12.4644 7.99965 12.4644C8.8924 12.4644 9.71649 12.6704 10.3345 13.2198L9.57914 14.0095C9.1671 13.5975 8.58337 13.3914 7.99965 13.3914C6.79786 13.3914 5.97378 14.3185 5.97378 15.486C5.97378 16.7565 6.79786 17.6835 7.99965 17.6835C8.54904 17.6835 9.02975 17.5805 9.37312 17.3745V16.001H8.17133V15.0396H10.4376V18.0613Z" fill="black"/>
<path d="M14.799 18.5075H13.8376V17.8551H13.8033C13.6316 18.2671 13.2539 18.6105 12.5671 18.6105C11.5027 18.6105 11.125 17.8551 11.125 17.031V14.5244H12.1208V16.5503C12.1208 16.9967 12.1551 17.7177 12.8418 17.7177C13.4942 17.7177 13.7689 17.237 13.7689 16.6876V14.5244H14.7647V18.5075H14.799Z" fill="black"/>
<path d="M16.1376 12.5327C16.5153 12.5327 16.79 12.8074 16.79 13.1164C16.79 13.4255 16.5153 13.7345 16.1376 13.7345C15.7599 13.7345 15.5195 13.4598 15.5195 13.1508C15.5195 12.8417 15.7942 12.5327 16.1376 12.5327ZM15.6569 14.4899H16.6526V18.473H15.6569V14.4899Z" fill="black"/>
<path d="M17.5117 12.2236H18.5075V18.5073H17.5117V12.2236Z" fill="black"/>
<path d="M22.4205 17.8894C22.1115 18.3701 21.5964 18.5761 21.047 18.5761C19.8109 18.5761 19.0898 17.649 19.0898 16.4816C19.0898 15.3141 19.8796 14.387 21.0127 14.387C21.7681 14.387 22.1458 14.7304 22.3518 15.0051H22.3862V12.1895H23.3819V18.4731H22.4205V17.8894ZM21.2531 17.6833C21.9741 17.6833 22.4205 17.0996 22.4205 16.4816C22.4205 15.8635 21.9741 15.2798 21.2531 15.2798C20.532 15.2798 20.0856 15.8635 20.0856 16.4816C20.0856 17.1339 20.4977 17.6833 21.2531 17.6833Z" fill="black"/>
<path d="M26.1988 15.6232C25.9928 15.3485 25.7524 15.2111 25.4091 15.2111C25.1344 15.2111 24.8253 15.3485 24.8253 15.6232C24.8253 16.3442 26.9886 15.7605 26.9886 17.3057C26.9886 18.2671 26.0958 18.5761 25.2717 18.5761C24.6537 18.5761 24.1386 18.4045 23.7266 17.9581L24.379 17.34C24.6193 17.6147 24.894 17.8207 25.3404 17.8207C25.6151 17.8207 25.9928 17.6834 25.9928 17.3743C25.9928 16.5503 23.8296 17.2027 23.8296 15.6918C23.8296 14.7991 24.6193 14.4214 25.4434 14.4214C25.9928 14.4214 26.5422 14.5931 26.8512 15.0394L26.1988 15.6232Z" fill="black"/>
<path d="M26.3031 13.2541C26.3031 12.9107 25.8911 12.9107 25.8911 12.9107H25.0327C25.067 11.5372 25.9941 11.1252 25.9941 11.1252C25.9941 11.1252 25.4791 9.58004 24.5176 9.37402C24.3459 10.1981 23.3158 10.6445 22.8008 10.9535C23.1441 10.8505 24.0712 10.6788 24.4489 11.3312C24.6206 11.6059 24.655 12.224 23.7279 12.7734L24.0712 13.8378H26.8525C26.8869 13.4601 26.7495 13.2541 26.3031 13.2541ZM24.6206 9.54571C24.6206 9.54571 25.17 9.68305 25.7881 10.9879C25.7881 10.9879 25.479 11.2282 25.4447 11.2969C25.4447 11.2969 25.5477 11.0222 25.6507 10.9192C25.6507 10.9535 25.067 9.78606 24.6206 9.54571ZM26.0628 13.2541C26.0628 13.2541 26.0284 13.0137 25.6851 13.0137C25.6851 13.0137 26.1658 12.9794 26.1658 13.2541H26.0628ZM26.5778 13.7005C26.5778 13.7005 26.6122 13.3914 26.2688 13.3571C26.2688 13.3571 26.7152 13.2884 26.7152 13.7005H26.5778Z" fill="#E1251B"/>
<path d="M26.7153 3.57106C26.7153 3.57106 26.6466 3.39938 26.9556 3.19336C26.9556 3.19336 25.8225 3.19336 25.7882 4.2578C25.7538 4.80719 25.6852 5.08188 25.4791 5.5626C25.3418 5.83729 25.0671 6.00898 24.7581 6.04331C24.7237 6.04331 24.4147 6.04331 24.2773 5.90597C24.4834 6.14632 24.7581 6.18066 25.2044 6.04331C25.3074 6.24933 25.2388 6.48969 25.0671 6.5927C25.0328 6.62704 24.9641 6.62704 24.8954 6.66137C24.9984 6.69571 25.1358 6.69571 25.2731 6.66137C25.2388 6.83306 25.1014 7.00474 24.9641 7.10775C25.0671 7.2451 25.2388 7.31377 25.4105 7.34811C25.6508 7.17643 25.8568 6.97041 26.0629 6.76438C26.0629 6.76438 26.1315 6.83306 26.1315 7.03908C26.1659 7.03908 26.5092 6.48969 26.5436 6.18066C26.6122 5.87163 26.6122 5.5626 26.5779 5.25357C26.5436 5.01321 26.5436 4.66984 26.7496 4.42948C26.8526 4.29214 27.0586 4.2578 27.2303 4.6355C27.2303 4.6355 27.3677 4.49816 27.3677 4.2578C27.3677 4.12045 27.2303 3.91443 27.0243 3.8801C27.0243 3.8801 27.2303 3.70841 27.4363 3.91443C27.2303 3.2277 26.7153 3.57106 26.7153 3.57106Z" fill="#E1251B"/>
<path d="M28.2601 7.62263C28.2601 7.62263 28.1914 6.86722 27.3673 6.86722C26.8523 6.86722 25.7878 7.79432 25.1354 7.51962C25.0667 7.48529 24.9981 7.45095 24.9294 7.38228C24.9981 7.82865 24.483 8.10335 24.483 8.10335L24.38 7.966L24.174 8.20636C24.1053 7.45095 23.3842 7.21059 22.9722 7.14192C23.7276 7.17626 24.1397 7.51962 24.2427 7.93167C24.3457 7.82865 24.4487 7.69131 24.483 7.55396C24.483 7.65697 24.4487 7.75998 24.4143 7.86299L24.5174 7.966C24.5174 7.966 25.0324 7.5883 24.7234 7.17626C24.586 7.00457 24.38 6.86723 24.174 6.76421C24.38 6.79855 24.586 6.90156 24.7577 7.03891C24.8607 7.00457 24.9637 6.9359 25.0324 6.83289C24.7921 6.83289 24.5517 6.72988 24.3457 6.59253C24.6204 6.69554 25.1698 6.59253 25.0667 6.24916C24.1397 6.55819 23.7619 5.52809 23.8306 5.08171H23.2812C23.2812 5.08171 24.3457 4.63533 24.277 5.66544C24.277 5.66544 24.8264 5.56243 24.8264 5.08171C24.8264 4.9787 24.792 4.87569 24.792 4.80702L24.0366 4.601C24.071 4.56666 24.8607 4.601 24.8607 4.56666C24.9637 4.42931 24.9981 4.36064 25.0324 4.18896C24.9981 4.15462 24.8951 4.01727 24.8951 4.01727C24.7921 3.87992 24.8607 3.84559 24.8607 3.84559C24.9294 3.84559 24.9294 3.91426 24.9294 3.9486C24.9294 3.98294 24.9294 3.98294 24.9637 4.01727L25.0667 4.08595C25.1011 4.01727 25.1698 3.9486 25.1698 3.87992C25.0324 3.57089 24.5517 3.43355 24.277 3.26186C24.174 3.19319 24.2083 2.98717 24.1397 2.91849C23.865 2.74681 23.865 2.74681 23.6933 2.6438C23.6933 2.60946 23.7276 2.43778 23.5903 2.30043C22.9722 1.81972 21.5301 2.12875 21.1524 2.40344C21.4614 2.36911 21.5301 2.54079 21.5301 2.54079C20.7746 2.60946 20.4313 3.2962 20.4313 3.2962C20.603 3.19319 20.7403 3.15885 20.8433 3.22753C20.8433 3.22753 20.0192 3.87992 20.2253 4.77268C20.2253 4.77268 20.3626 4.49799 20.4313 4.49799C20.4313 4.49799 20.7403 4.94437 20.4656 5.69977C20.4656 5.69977 20.7403 5.59676 20.8433 5.35641C20.8433 5.35641 20.5686 6.31784 20.8777 6.69554C20.8777 6.69554 20.9463 6.52386 21.0837 6.52386C21.0837 6.52386 21.3584 6.83289 21.118 7.48529C21.118 7.48529 21.3584 7.41661 21.4614 7.21059C21.4614 7.21059 21.5644 7.41661 21.221 8.06901C21.221 8.06901 21.4957 8.00034 21.5987 7.82865C21.6331 7.79432 21.7704 8.8931 20.5686 10.0949C20.1222 10.5413 19.5385 10.816 18.9205 10.9876C18.7488 11.022 18.4741 11.0563 18.1651 11.0563C16.7229 10.9876 15.7958 8.96177 18.1651 7.89733C18.1651 7.89733 18.7144 8.00034 18.9205 8.34371C18.9548 8.68707 19.1608 8.96177 19.6759 9.13345C20.0879 9.23646 20.0536 9.88886 20.0192 10.0949C20.0192 10.0949 20.6716 9.54549 20.5686 8.79008C20.4313 8.20636 20.0192 7.86299 19.4355 7.75998L19.0578 7.45095C21.4614 6.24916 19.9162 3.77691 18.1994 3.77691C16.4139 3.77691 14.9374 6.24916 17.2723 7.45095C15.6928 8.27503 15.4181 9.23646 15.5211 9.95754C15.5211 9.95754 15.7271 11.9834 18.1994 11.9834C19.5729 11.9834 20.8433 10.7473 21.5301 9.95754C21.3584 10.3696 20.912 10.816 20.912 10.816C20.5343 11.7774 19.7789 12.3611 18.9548 12.8075L19.4698 13.9406H22.2168C22.2511 13.5629 22.0794 13.3569 21.6674 13.3569C21.6674 12.9792 21.2554 13.0135 21.2554 13.0135H20.3969C20.4656 12.3954 21.1524 12.1894 21.9764 12.0521C22.0451 11.7087 22.2168 11.5027 22.4228 11.2967C22.5945 11.1593 22.6632 11.0906 22.8692 10.9533C23.6589 10.4382 24.3113 10.1292 24.483 9.47682C24.5174 9.37381 24.5174 9.16779 24.5174 9.16779C23.6589 8.79008 23.6246 8.06901 23.6246 8.06901C23.7619 8.48105 24.5517 9.44248 25.6161 9.16779C25.6161 9.16779 25.4444 9.13345 25.4444 8.99611C25.4444 8.99611 25.9252 9.09912 26.5776 8.75575C26.4746 8.75575 26.3372 8.72141 26.2342 8.58406C27.1956 8.03468 27.436 8.13769 27.2643 8.68707C27.6077 8.48105 27.7794 8.17202 27.745 8.03468C27.745 8.03468 27.9854 8.17202 27.8137 8.48105C28.4661 7.966 28.054 7.65697 28.0197 7.62263C27.9167 7.51962 28.1227 7.48529 28.2601 7.62263ZM23.7619 3.12452C23.7963 3.19319 23.7276 3.2962 23.7276 3.2962L23.9336 3.46788C23.4873 3.33054 23.4186 3.15885 23.4186 3.15885C23.5216 3.19319 23.6589 3.15885 23.7619 3.12452ZM18.0964 4.56666C19.2295 4.56666 19.7102 6.24916 18.0964 6.79855C16.4825 6.24916 16.9633 4.56666 18.0964 4.56666ZM19.2295 12.8418C19.2295 12.8418 19.4355 13.2539 19.4012 13.4599C19.2982 13.1852 19.0921 12.7732 19.0921 12.7732C19.0921 12.7732 19.4355 12.5671 19.7102 12.3611C19.5385 12.6358 19.2295 12.8075 19.2295 12.8418ZM21.9421 13.7002H21.8047C21.8047 13.7002 21.8391 13.3912 21.4957 13.3569C21.4957 13.3912 21.9421 13.3225 21.9421 13.7002ZM21.427 13.2882H21.2897C21.2897 13.2882 21.2554 13.0478 20.912 13.0478C20.9463 13.0478 21.427 13.0135 21.427 13.2882ZM23.865 6.6612C23.968 6.69554 23.1782 6.62687 23.0752 6.07748C23.0752 6.07748 22.9722 5.69977 22.7662 5.49375C22.7662 5.49375 23.0065 5.56243 23.1782 6.07748C23.3156 6.52386 23.7619 6.59253 23.865 6.6612ZM22.5602 4.70401C22.5602 4.70401 22.5945 4.91003 22.9379 5.01304C22.9379 5.01304 22.8349 5.01304 22.8005 5.01304C22.6632 5.01304 22.4915 4.91003 22.5602 4.70401ZM23.1095 2.60946C23.1095 2.60946 22.6288 2.78115 22.4915 3.19319C22.4915 3.19319 22.4571 2.60946 23.1095 2.60946ZM22.6288 3.50222C22.9722 3.98294 22.3885 4.49799 22.3885 4.49799C22.7318 4.05161 22.6288 3.50222 22.6288 3.50222ZM20.809 3.87992C20.809 3.87992 20.8433 3.05584 21.5987 3.12452C21.5644 3.12452 21.015 3.19319 20.809 3.87992ZM21.1867 4.46365C21.0837 4.87569 21.1524 5.28773 21.3584 5.66544C21.015 5.39074 20.9463 4.87569 21.1867 4.46365ZM21.427 4.01727C21.427 4.01727 21.5301 3.63957 21.7017 3.50222C21.8734 3.36487 21.9421 3.15885 21.9764 2.91849C21.9764 2.91849 22.1138 3.39921 21.7704 3.60523C21.8048 3.60523 21.5987 3.74258 21.427 4.01727ZM21.4957 6.83289C21.6331 6.45518 21.427 6.04314 21.427 6.04314C21.8391 6.45518 21.4957 6.83289 21.4957 6.83289ZM21.7361 11.743C21.7361 11.743 21.3927 11.8117 21.1524 11.9491C21.1524 11.9491 21.4957 11.6744 21.5987 11.6744C21.5987 11.6744 21.8391 11.1937 22.0451 11.0906C22.0451 11.0906 21.6674 11.537 21.7361 11.743ZM21.8047 7.38228L21.6331 7.51962C21.7017 7.38228 21.7361 7.34794 21.7704 7.17626C21.7704 7.10758 21.8734 7.14192 21.8734 7.17626C21.8734 7.45095 22.3198 7.79432 22.3198 7.79432C21.9764 7.72564 21.8047 7.38228 21.8047 7.38228ZM21.6674 5.11605C21.4957 4.70401 21.8734 4.29197 21.8734 4.29197C21.5644 4.94437 21.9764 5.2534 21.9764 5.2534C22.2511 5.49375 22.4228 5.83712 22.4915 6.18049C22.0451 5.42508 21.8734 5.49375 21.6674 5.11605ZM22.2855 7.48529C22.3541 6.76421 22.8349 6.90156 22.8349 6.90156C22.3885 7.03891 22.2855 7.48529 22.2855 7.48529Z" fill="#E1251B"/>
</g>
<defs>
<clipPath id="clip0_827_9387">
<rect width="73" height="21.4262" fill="white"/>
</clipPath>
</defs>
</svg>
