<svg width="113" height="36" viewBox="0 0 113 36" fill="none" xmlns="http://www.w3.org/2000/svg">
<path d="M112.355 0.0224609V35.316H38.0566V0.0224609H112.355ZM105.558 8.23052C104.466 4.50502 98.8723 4.47216 97.3535 7.9359C95.6868 11.7342 99.0601 15.4491 103.006 14.1779C104.011 13.854 105.793 12.1908 105.793 11.1027V9.40192H100.987V10.8093H103.917C103.564 13.2319 100.072 13.422 99.127 11.3222C97.9955 8.80448 100.261 5.94053 102.786 7.4265C103.068 7.59317 103.452 8.22934 103.506 8.22934H105.557L105.558 8.23052ZM50.5958 5.53323H44.0334V6.94056H46.3774V14.3282H48.2519V6.94056H50.5958V5.53323ZM58.5645 14.3282L56.5738 10.8691C56.8825 10.5557 57.3567 10.5006 57.6865 10.2259C58.8215 9.28337 58.8016 7.19761 57.6865 6.23513C57.4576 6.03794 56.4212 5.53323 56.1606 5.53323H52.0008V14.327H53.8753V10.9266L54.7016 11.0957L56.4529 14.327H58.5621L58.5645 14.3282ZM59.9718 14.3282H61.7888L62.5083 12.7025L65.8922 12.8023L66.4767 14.3282H68.2937L65.2302 5.55083L63.1914 5.52619L59.973 14.3282H59.9718ZM71.5732 5.53323H69.8149V14.327H71.5732V5.53323ZM75.6167 5.53323H73.7998V14.327H75.6743V8.58147L79.6005 14.327H81.3001V5.53323H79.5418V11.3961L75.6156 5.53323H75.6167ZM85.4012 5.53323H83.6429V14.327H85.4012V5.53323ZM89.4447 5.53323H87.6278V14.327H89.5023V8.58147L93.4285 14.327H95.1281V5.53323H93.3698V11.3961L89.4436 5.53323H89.4447ZM51.2989 22.7698C51.4081 19.4915 45.5065 19.333 45.098 22.2522C44.6895 25.1713 47.1814 24.8274 48.8763 25.7241C51.1616 26.9331 47.2577 29.1175 46.9631 26.5211H45.1461C44.9184 26.6549 45.0722 27.1197 45.1426 27.3463C46.0499 30.2443 52.0255 29.7618 51.387 26.0211C51.0219 23.8802 47.2917 24.0586 46.9877 23.0386C46.4842 21.346 49.2918 21.2204 49.3071 22.7698H51.2989ZM90.0891 23.1219C89.2534 19.7908 84.5244 19.2344 82.4914 21.7932C80.901 23.7957 81.2684 27.1103 83.4879 28.4942C85.8331 29.9567 89.3708 29.1292 90.088 26.2875H87.9787C87.9576 26.2875 87.94 26.5493 87.8473 26.6796C86.7381 28.2313 84.2004 27.7078 83.5865 25.9342C82.8764 23.8837 83.9868 21.5233 86.3871 21.8437C87.4564 21.9869 88.0421 23.1231 88.1548 23.1231H90.088L90.0891 23.1219ZM104.972 22.7698C105.086 19.4868 99.1787 19.3483 98.7714 22.2522C98.3629 25.1689 100.855 24.8274 102.55 25.7241C104.804 26.9167 101.017 29.1128 100.636 26.5211H98.8195C98.593 26.6526 98.7291 27.0258 98.7949 27.25C99.701 30.3264 105.694 29.7325 105.06 26.0211C104.698 23.8943 100.958 24.0316 100.661 23.0386C100.155 21.3472 102.966 21.2204 102.98 22.7698H104.972ZM58.4483 20.3073H53.4093V29.101H58.4483V27.5763H55.1664V25.3485H58.0961V23.9412H55.1664V21.8308H58.4483V20.3061V20.3073ZM64.4837 20.3073C63.2771 20.1582 61.7958 20.4176 60.5575 20.3073V29.101H62.3158V25.7007L63.1961 25.8157L65.0694 29.101H67.1199C66.8758 28.3451 65.1797 26.2429 65.1281 25.6396C65.1234 25.5821 65.1257 25.5246 65.1281 25.4671C68.0378 24.6325 67.492 20.6793 64.4837 20.3073ZM69.9323 20.3073H67.9404L71.2739 29.1092L73.3913 28.986L76.4947 20.3073H74.6202L72.16 27.108L69.9323 20.3073ZM79.6592 20.3073H77.9009V29.101H79.6592V20.3073ZM97.1211 20.3073H91.9648V29.101H97.1211C97.0542 28.6151 97.2971 27.9496 96.945 27.5763H93.7219V25.3485H96.6516V23.9412H93.7219V21.8308H96.945C97.2971 21.4575 97.053 20.7932 97.1211 20.3061V20.3073Z" fill="black"/>
<path d="M75.6187 5.5332L79.5438 11.3961V5.5332H81.302V14.3281H79.6024L75.6774 8.58261V14.3281H73.8018V5.5332H75.6187Z" fill="white"/>
<path d="M89.4469 5.5332L93.3731 11.3961V5.5332H95.1302V14.3281H93.4317L89.5055 8.58261V14.3281H87.6299V5.5332H89.4469Z" fill="white"/>
<path d="M105.559 8.2307H103.509C103.455 8.2307 103.071 7.59453 102.788 7.42786C100.263 5.94071 97.997 8.80585 99.1297 11.3235C100.073 13.4234 103.565 13.2332 103.92 10.8106H100.99V9.40328H105.795V11.104C105.795 12.1921 104.014 13.8553 103.009 14.1793C99.0627 15.4505 95.6894 11.7355 97.3561 7.93726C98.8761 4.47352 104.469 4.50638 105.561 8.23188L105.559 8.2307Z" fill="white"/>
<path d="M58.5662 14.3279H56.4569L54.7057 11.0966L53.8794 10.9276V14.3279H52.0049V5.53418H56.1647C56.4252 5.53418 57.4617 6.03889 57.6905 6.23608C58.8056 7.19856 58.8256 9.28432 57.6905 10.2268C57.3607 10.5003 56.8853 10.5567 56.5778 10.8701L58.5685 14.3291L58.5662 14.3279ZM53.8794 9.52024H55.8125C56.2327 9.52024 56.7022 8.60472 56.6835 8.17982C56.6647 7.75492 56.221 7.05771 55.8125 7.05771H53.8794V9.52024Z" fill="white"/>
<path d="M64.4838 20.3078C67.4922 20.681 68.0379 24.6331 65.1282 25.4676C65.1259 25.5239 65.1235 25.5814 65.1282 25.6401C65.181 26.2446 66.8759 28.3456 67.1201 29.1015H65.0695L63.1962 25.8162L62.3159 25.7012V29.1015H60.5576V20.3078C61.7959 20.4181 63.2772 20.1587 64.4838 20.3078ZM62.3147 24.295H64.3653C64.4979 24.295 64.9721 23.8431 65.0378 23.6788C65.2972 23.0391 65.0308 21.8325 64.2479 21.8325H62.3147V24.295Z" fill="#E99E20"/>
<path d="M59.9709 14.3288L63.1893 5.52686L65.2281 5.5515L68.2916 14.3288H66.4747L65.8901 12.803L62.5062 12.7032L61.7867 14.3288H59.9697H59.9709ZM65.2446 11.162L64.1307 7.7605L62.9006 11.162H65.2446Z" fill="white"/>
<path d="M90.0883 23.1219H88.1552C88.0425 23.1219 87.4568 21.9857 86.3875 21.8425C83.9872 21.5221 82.8768 23.8825 83.5869 25.933C84.2008 27.7066 86.7385 28.2301 87.8477 26.6784C87.9404 26.5481 87.958 26.2863 87.9791 26.2863H90.0883C89.3712 29.128 85.8335 29.9555 83.4883 28.493C81.2688 27.1091 80.9014 23.7945 82.4918 21.792C84.5236 19.2333 89.2538 19.7884 90.0895 23.1207L90.0883 23.1219Z" fill="#E99E20"/>
<path d="M104.974 22.7704H102.982C102.968 21.2211 100.158 21.349 100.663 23.0392C100.959 24.0334 104.699 23.8949 105.062 26.0217C105.694 29.732 99.7024 30.3259 98.7963 27.2507C98.7305 27.0276 98.5944 26.6544 98.8209 26.5218H100.638C101.018 29.1134 104.806 26.9173 102.551 25.7248C100.856 24.828 98.3643 25.1696 98.7728 22.2528C99.1789 19.3478 105.086 19.4875 104.974 22.7704Z" fill="#E99E20"/>
<path d="M51.3001 22.771H49.3082C49.2941 21.2228 46.4854 21.3484 46.9889 23.0398C47.2929 24.0597 51.0231 23.8813 51.3881 26.0223C52.0266 29.763 46.0511 30.2454 45.1438 27.3474C45.0733 27.1209 44.9196 26.6573 45.1473 26.5223H46.9642C47.2589 29.1186 51.1628 26.9343 48.8775 25.7253C47.1826 24.8286 44.6907 25.1701 45.0991 22.2533C45.5076 19.3366 51.4092 19.4927 51.3001 22.771Z" fill="#E99E20"/>
<path d="M69.9342 20.3081L72.162 27.1088L74.6222 20.3081H76.4967L73.3933 28.9868L71.2758 29.1101L67.9424 20.3081H69.9342Z" fill="#E99E20"/>
<path d="M97.1202 20.3081C97.0533 20.794 97.2962 21.4596 96.9441 21.8328H93.721V23.9432H96.6507V25.3506H93.721V27.5783H96.9441C97.2962 27.9516 97.0521 28.6159 97.1202 29.103H91.9639V20.3093H97.1202V20.3081Z" fill="#E99E20"/>
<path d="M58.4503 20.3081V21.8328H55.1684V23.9432H58.0981V25.3506H55.1684V27.5783H58.4503V29.103H53.4102V20.3081H58.4503Z" fill="#E99E20"/>
<path d="M50.5947 5.5332V6.94053H48.2507V14.3281H46.3762V6.94053H44.0322V5.5332H50.5947Z" fill="white"/>
<path d="M71.5737 5.5332H69.8154V14.327H71.5737V5.5332Z" fill="white"/>
<path d="M85.4018 5.5332H83.6436V14.327H85.4018V5.5332Z" fill="white"/>
<path d="M79.6626 20.3081H77.9043V29.1019H79.6626V20.3081Z" fill="#E99E20"/>
<path d="M53.8779 9.52161V7.05908H55.8111C56.2196 7.05908 56.6632 7.77742 56.682 8.18119C56.702 8.60609 56.2313 9.52161 55.8111 9.52161H53.8779Z" fill="black"/>
<path d="M62.3184 24.2955V21.833H64.2515C65.0344 21.833 65.3009 23.0396 65.0415 23.6793C64.9746 23.8436 64.5015 24.2955 64.3689 24.2955H62.3184Z" fill="black"/>
<path d="M65.2473 11.1613H62.9033L64.1334 7.75977L65.2473 11.1613Z" fill="black"/>
<path d="M16.6268 18.6812V35.3168H0V18.6812H16.6268ZM7.23593 21.9973H5.19223V32.0559H10.5504V30.4532H7.23593V21.9973Z" fill="black"/>
<path d="M16.6268 0V16.6356H0V0H16.6268ZM11.0478 3.31617H5.19278V13.4301H11.0478V11.772H7.23648V9.11918H10.6058V7.4611H7.23648V4.97425H11.0478V3.31617Z" fill="black"/>
<path d="M35.0184 18.6812V35.3168H18.3916V18.6812H35.0184ZM23.8605 21.9973H21.5407V32.0559H23.5844V25.7002L26.2079 32.0011C26.3025 32.1162 27.5495 32.0487 27.783 32.0288L30.4341 25.7002V32.0559H32.4778V21.9973H30.1581L26.9824 29.3483L23.861 21.9973H23.8605Z" fill="black"/>
<path d="M35.0184 0V16.6356H18.3916V0H35.0184ZM32.4778 2.54217H20.9332V14.1488H32.4778V2.54217Z" fill="black"/>
<path d="M7.2351 21.9976V30.4539H10.5496V32.0567H5.19141V21.9976H7.2351Z" fill="white"/>
<path d="M11.047 3.31641V4.97449H7.2351V7.46134H10.6049V9.11942H7.2351V11.7722H11.047V13.4303H5.19141V3.31641H11.047Z" fill="white"/>
<path d="M23.8633 21.9976L26.9847 29.3486L30.1604 21.9976H32.4801V32.0562H30.4364V25.7004L27.7853 32.029C27.5518 32.049 26.3048 32.1165 26.2102 32.0014L23.5867 25.7004V32.0562H21.543V21.9976H23.8627H23.8633Z" fill="white"/>
<path d="M32.4811 2.54199H20.9365V14.1486H32.4811V2.54199Z" fill="#E99E20"/>
</svg>
