<svg width="120" height="120" viewBox="0 0 120 120" fill="none" xmlns="http://www.w3.org/2000/svg">
<path d="M88.125 3.75H31.875C28.8923 3.75335 26.0328 4.93969 23.9237 7.04875C21.8147 9.15781 20.6283 12.0173 20.625 15V108.75C20.6272 110.738 21.4181 112.645 22.8242 114.051C24.2302 115.457 26.1366 116.248 28.125 116.25H91.875C93.8634 116.248 95.7698 115.457 97.1758 114.051C98.5819 112.645 99.3728 110.738 99.375 108.75V15C99.3717 12.0173 98.1853 9.15781 96.0763 7.04875C93.9672 4.93969 91.1077 3.75335 88.125 3.75ZM91.875 108.75H28.125V56.25H91.875V108.75ZM91.875 48.75H28.125V15C28.1262 14.0058 28.5217 13.0527 29.2247 12.3497C29.9277 11.6467 30.8808 11.2512 31.875 11.25H88.125C89.1192 11.2512 90.0723 11.6467 90.7753 12.3497C91.4783 13.0527 91.8738 14.0058 91.875 15V48.75Z" fill="white"/>
<path d="M33.75 65.625H41.25V88.125H33.75V65.625ZM33.75 24.375H41.25V39.375H33.75V24.375Z" fill="white"/>
</svg>
