<svg width="120" height="120" viewBox="0 0 120 120" fill="none" xmlns="http://www.w3.org/2000/svg">
<path d="M15 15H105V36.925H95V25H25V70H46.665V80H15V15Z" fill="white"/>
<path d="M63.4198 51.435C67.7898 56.06 71.5148 60 79.9998 60H89.9998C92.652 60 95.1955 61.0536 97.0709 62.9289C98.9463 64.8043 99.9998 67.3478 99.9998 70V75C99.9998 76.7553 99.5377 78.4797 98.66 79.9999C97.7823 81.52 96.52 82.7823 94.9998 83.66V110H79.9998V70C66.9148 70 60.2198 62.75 55.7998 57.975C55.2006 57.3167 54.5888 56.6699 53.9648 56.035L61.0348 48.965C61.8648 49.7983 62.6598 50.6217 63.4198 51.435ZM94.9998 47.5C94.9998 49.4891 94.2097 51.3968 92.8031 52.8033C91.3966 54.2098 89.489 55 87.4998 55C85.5107 55 83.6031 54.2098 82.1965 52.8033C80.79 51.3968 79.9998 49.4891 79.9998 47.5C79.9998 45.5109 80.79 43.6032 82.1965 42.1967C83.6031 40.7902 85.5107 40 87.4998 40C89.489 40 91.3966 40.7902 92.8031 42.1967C94.2097 43.6032 94.9998 45.5109 94.9998 47.5Z" fill="white"/>
</svg>
