<svg width="22" height="22" viewBox="0 0 22 22" fill="none" xmlns="http://www.w3.org/2000/svg">
<path d="M6.875 2.75L5.5 4.125L6.875 5.5L8.25 4.125L6.875 2.75ZM8.25 4.125L9.625 5.5L11 4.125L9.625 2.75L8.25 4.125ZM11 4.125L12.375 5.5L13.75 4.125L12.375 2.75L11 4.125ZM13.75 4.125L15.125 5.5L16.5 4.125L15.125 2.75L13.75 4.125ZM15.125 5.5H3.4375V19.25H18.5625V5.5H15.125ZM4.8125 6.875H17.1875V17.875H13.0625V14.4375H8.9375V17.875H4.8125V6.875ZM6.1875 8.25V9.625H7.5625V8.25H6.1875ZM8.9375 8.25V9.625H10.3125V8.25H8.9375ZM11.6875 8.25V9.625H13.0625V8.25H11.6875ZM14.4375 8.25V9.625H15.8125V8.25H14.4375ZM6.1875 10.3125V11.6875H7.5625V10.3125H6.1875ZM8.9375 10.3125V11.6875H10.3125V10.3125H8.9375ZM11.6875 10.3125V11.6875H13.0625V10.3125H11.6875ZM14.4375 10.3125V11.6875H15.8125V10.3125H14.4375ZM6.1875 12.375V13.75H7.5625V12.375H6.1875ZM8.9375 12.375V13.75H10.3125V12.375H8.9375ZM11.6875 12.375V13.75H13.0625V12.375H11.6875ZM14.4375 12.375V13.75H15.8125V12.375H14.4375ZM6.1875 14.4375V15.8125H7.5625V14.4375H6.1875ZM14.4375 14.4375V15.8125H15.8125V14.4375H14.4375ZM10.3125 15.8125H11.6875V17.875H10.3125V15.8125Z" fill="#E99E20"/>
</svg>
