<svg width="22" height="20" viewBox="0 0 22 20" fill="none" xmlns="http://www.w3.org/2000/svg">
<path d="M10.4179 0.288742C10.4545 0.20393 10.5198 0.13084 10.6053 0.0792434C10.6908 0.0276462 10.7924 0 10.8964 0C11.0005 0 11.102 0.0276462 11.1875 0.0792434C11.2731 0.13084 11.3384 0.20393 11.3749 0.288742L13.9649 6.68132H21.2799C21.3843 6.68168 21.486 6.70979 21.5715 6.76188C21.657 6.81397 21.7221 6.88756 21.7582 6.97278C21.7943 7.058 21.7997 7.1508 21.7735 7.23873C21.7474 7.32667 21.691 7.40556 21.6119 7.46483L15.4999 11.876L18.0579 18.5663C18.0919 18.6559 18.0923 18.7526 18.0591 18.8425C18.0259 18.9323 17.9608 19.0106 17.8732 19.0662C17.7855 19.1218 17.6799 19.1517 17.5715 19.1517C17.4631 19.1516 17.3575 19.1216 17.2699 19.066L10.8949 14.9944L4.51694 19.0651C4.42943 19.1203 4.32409 19.1499 4.21604 19.1497C4.10799 19.1495 4.0028 19.1195 3.91558 19.0639C3.82836 19.0084 3.7636 18.9303 3.73061 18.8407C3.69761 18.7511 3.69808 18.6548 3.73194 18.5654L6.29094 11.8751L0.177939 7.46396C0.0988664 7.40469 0.0424817 7.3258 0.0163353 7.23786C-0.00981098 7.14992 -0.00447062 7.05713 0.0316413 6.97191C0.0677533 6.88668 0.132913 6.8131 0.218394 6.76101C0.303876 6.70892 0.405598 6.68081 0.509939 6.68045H7.82594L10.4179 0.288742Z" fill="#E99E20"/>
</svg>
